<svg width="160" height="120" viewBox="0 0 160 120" fill="none" xmlns="http://www.w3.org/2000/svg">
<path d="M26.3588 120C25.5931 120 24.8691 119.591 24.4878 118.901L9.25021 91.33C8.68338 90.3054 9.06263 89.0204 10.0962 88.4583C11.1253 87.8962 12.4253 88.2713 12.9921 89.2972L24.2254 109.623V90.3136C24.2254 89.1454 25.1807 88.1981 26.3588 88.1981C27.5369 88.1981 28.4922 89.1454 28.4922 90.3136V117.885C28.4922 118.851 27.8317 119.694 26.8881 119.934C26.7118 119.978 26.5337 120 26.3588 120Z" fill="#64798A"/>
<path d="M133.641 120C134.407 120 135.131 119.591 135.512 118.901L150.75 91.33C151.317 90.3054 150.937 89.0204 149.904 88.4583C148.875 87.8962 147.575 88.2713 147.008 89.2972L135.775 109.623V90.3136C135.775 89.1454 134.819 88.1981 133.641 88.1981C132.463 88.1981 131.508 89.1454 131.508 90.3136V117.885C131.508 118.851 132.168 119.694 133.112 119.934C133.288 119.978 133.466 120 133.641 120Z" fill="#64798A"/>
<path d="M155.733 90.3138H4.26673C1.91026 90.3138 0 88.4196 0 86.0829V83.9674C0 81.6307 1.91026 79.7365 4.26673 79.7365H155.733C158.09 79.7365 160 81.6307 160 83.9674V86.0829C160 88.4196 158.09 90.3138 155.733 90.3138Z" fill="#D09C9C"/>
<path d="M47.4369 41.8816H28.5718V79.7376H47.4369V41.8816Z" fill="#BEBEBE"/>
<path d="M89.4335 28.5861H70.5684V79.7377H89.4335V28.5861Z" fill="#BEBEBE"/>
<path d="M131.42 28.5861H112.555V79.7377H131.42V28.5861Z" fill="#64BC9D"/>
<path d="M70.5686 14.808H47.4368V79.7353H70.5686V14.808Z" fill="#64BC9D"/>
<path d="M112.561 0H89.4292V79.7354H112.561V0Z" fill="#50CFA2"/>
<path d="M112.559 6.81812H89.4292V11.0491H112.559V6.81812Z" fill="white"/>
<path d="M112.559 15.28H89.4292V19.511H112.559V15.28Z" fill="white"/>
<path d="M131.458 36.0791H112.512V40.3101H131.458V36.0791Z" fill="white"/>
<path d="M131.458 68.0054H112.512V72.2363H131.458V68.0054Z" fill="white"/>
<path d="M89.4739 36.0791H70.5278V40.3101H89.4739V36.0791Z" fill="#7E8387"/>
<path d="M47.4793 47.0793H28.5332V49.1948H47.4793V47.0793Z" fill="#7E8387"/>
<path d="M47.4793 51.3102H28.5332V53.4257H47.4793V51.3102Z" fill="#7E8387"/>
<path d="M47.4793 68.1914H28.5332V70.3069H47.4793V68.1914Z" fill="#7E8387"/>
<path d="M47.4793 72.4224H28.5332V74.5378H47.4793V72.4224Z" fill="#7E8387"/>
<path d="M89.4739 68.0054H70.5278V72.2363H89.4739V68.0054Z" fill="#7E8387"/>
<path d="M70.5662 22.0282H47.4368V26.2592H70.5662V22.0282Z" fill="white"/>
<path d="M70.5662 68.2971H47.4368V72.5281H70.5662V68.2971Z" fill="white"/>
</svg>
