<svg width="234" height="165" viewBox="0 0 234 165" fill="none" xmlns="http://www.w3.org/2000/svg">
<path d="M38.5497 164.126C37.4299 164.126 36.3711 163.567 35.8135 162.623L13.5284 124.913C12.6994 123.512 13.2541 121.754 14.7656 120.986C16.2707 120.217 18.172 120.73 19.001 122.133L35.4297 149.933V123.523C35.4297 121.925 36.8268 120.63 38.5497 120.63C40.2727 120.63 41.6698 121.925 41.6698 123.523V161.233C41.6698 162.554 40.7039 163.708 39.3238 164.036C39.0659 164.096 38.8056 164.126 38.5497 164.126Z" fill="#64798A"/>
<path d="M195.45 164.126C196.57 164.126 197.629 163.567 198.186 162.623L220.471 124.913C221.3 123.512 220.746 121.754 219.234 120.986C217.729 120.217 215.828 120.73 214.999 122.133L198.57 149.933V123.523C198.57 121.925 197.173 120.63 195.45 120.63C193.727 120.63 192.33 121.925 192.33 123.523V161.233C192.33 162.554 193.296 163.708 194.676 164.036C194.933 164.096 195.194 164.126 195.45 164.126Z" fill="#64798A"/>
<path d="M227.76 123.524H6.24009C2.79375 123.524 0 120.933 0 117.737V114.844C0 111.648 2.79375 109.057 6.24009 109.057H227.76C231.206 109.057 234 111.648 234 114.844V117.737C234 120.933 231.206 123.524 227.76 123.524Z" fill="#D09C9C"/>
<path d="M69.3766 57.2822H41.7864V109.059H69.3766V57.2822Z" fill="#BEBEBE"/>
<path d="M130.797 39.0977H103.207V109.059H130.797V39.0977Z" fill="#BEBEBE"/>
<path d="M192.201 39.0977H164.611V109.059H192.201V39.0977Z" fill="#64BC9D"/>
<path d="M103.206 20.2532H69.376V109.055H103.206V20.2532Z" fill="#64BC9D"/>
<path d="M164.62 0H130.79V109.055H164.62V0Z" fill="#50CFA2"/>
<path d="M164.617 9.3252H130.79V15.1119H164.617V9.3252Z" fill="white"/>
<path d="M164.617 20.8987H130.79V26.6854H164.617V20.8987Z" fill="white"/>
<path d="M192.257 49.3459H164.548V55.1327H192.257V49.3459Z" fill="white"/>
<path d="M192.257 93.0121H164.548V98.7988H192.257V93.0121Z" fill="white"/>
<path d="M130.856 49.3459H103.147V55.1327H130.856V49.3459Z" fill="#7E8387"/>
<path d="M69.4386 64.3911H41.73V67.2845H69.4386V64.3911Z" fill="#7E8387"/>
<path d="M69.4386 70.1779H41.73V73.0712H69.4386V70.1779Z" fill="#7E8387"/>
<path d="M69.4386 93.2665H41.73V96.1598H69.4386V93.2665Z" fill="#7E8387"/>
<path d="M69.4386 99.0532H41.73V101.947H69.4386V99.0532Z" fill="#7E8387"/>
<path d="M130.856 93.0121H103.147V98.7988H130.856V93.0121Z" fill="#7E8387"/>
<path d="M103.203 30.1284H69.376V35.9152H103.203V30.1284Z" fill="white"/>
<path d="M103.203 93.411H69.376V99.1978H103.203V93.411Z" fill="white"/>
</svg>
