<svg width="40" height="40" viewBox="0 0 40 40" fill="none" xmlns="http://www.w3.org/2000/svg">
<path d="M18.2134 33.371L21.528 30.0564L14.8989 23.4271L4.95508 33.371L11.5841 40L14.8989 36.6855L13.2415 35.0281L16.556 31.7136L18.2134 33.371Z" fill="#64798A"/>
<path d="M35.578 2.74778C31.9153 -0.914626 25.9824 -0.914626 22.3196 2.74778C19.2371 5.83036 18.7897 10.5206 20.8945 14.1168L1.64062 33.3718L4.95514 36.6863L24.209 17.4313C27.8052 19.5361 32.4954 19.0887 35.578 16.0061C39.2404 12.3434 39.2404 6.4105 35.578 2.74778ZM26.4627 11.8631C25.0873 10.4873 25.0873 8.26658 26.4627 6.89115C27.8384 5.51542 30.0592 5.51542 31.4346 6.89115C32.8104 8.26658 32.8104 10.4873 31.4346 11.8631C30.0592 13.2385 27.8384 13.2385 26.4627 11.8631Z" fill="#64798A"/>
<path d="M35.5781 16.0053C32.4955 19.0879 27.8052 19.5353 24.209 17.4305L4.9552 36.6855L3.2981 35.0281L26.4628 11.8619C27.8385 13.2377 30.0593 13.2377 31.4347 11.8619C32.8104 10.4865 32.8104 8.26574 31.4347 6.89032L35.5781 2.74695C39.2405 6.40966 39.2405 12.3426 35.5781 16.0053Z" fill="#64798A"/>
</svg>
