<svg width="25" height="25" viewBox="0 0 25 25" fill="none" xmlns="http://www.w3.org/2000/svg">
<g clip-path="url(#clip0)">
<path d="M15.6248 13.5417C15.0488 13.5417 14.5832 14.0084 14.5832 14.5833V18.7501C14.5832 19.324 14.1165 19.7917 13.5415 19.7917H10.4165V4.16681C10.4165 3.27723 9.84983 2.48244 8.99782 2.18662L8.68941 2.08343H13.5415C14.1165 2.08343 14.5832 2.55111 14.5832 3.12522V6.25019C14.5832 6.82506 15.0488 7.29178 15.6248 7.29178C16.2008 7.29178 16.6664 6.82506 16.6664 6.25019V3.12522C16.6664 1.40232 15.2644 0.000244141 13.5415 0.000244141H2.34373C2.30405 0.000244141 2.27087 0.0179823 2.23234 0.0231321C2.18217 0.018936 2.1343 0.000244141 2.08338 0.000244141C0.9344 0.000244141 0 0.934455 0 2.08343V20.8333C0 21.7228 0.566667 22.5176 1.41867 22.8134L7.68749 24.9031C7.89996 24.9687 8.1113 25 8.33331 25C9.48228 25 10.4165 24.0656 10.4165 22.9166V21.875H13.5415C15.2644 21.875 16.6664 20.473 16.6664 18.7501V14.5833C16.6664 14.0084 16.2008 13.5417 15.6248 13.5417V13.5417Z" fill="#757575"/>
<path d="M24.6946 9.6803L20.5278 5.51374C20.2301 5.21582 19.7821 5.12617 19.3926 5.28753C19.0041 5.44908 18.7498 5.82921 18.7498 6.25016V9.37513H14.5833C14.0082 9.37513 13.5415 9.84166 13.5415 10.4167C13.5415 10.9918 14.0082 11.4583 14.5833 11.4583H18.7498V14.5833C18.7498 15.0042 19.0041 15.3844 19.3926 15.5459C19.7821 15.7073 20.2301 15.6176 20.5278 15.3199L24.6946 11.1531C25.1018 10.7459 25.1018 10.0875 24.6946 9.6803V9.6803Z" fill="#757575"/>
</g>
<defs>
<clipPath id="clip0">
<rect width="25" height="25" fill="white"/>
</clipPath>
</defs>
</svg>
