<svg width="20" height="20" viewBox="0 0 40 40" fill="none" xmlns="http://www.w3.org/2000/svg">
<path d="M20 0C14.1845 0 9.45312 4.73133 9.45312 10.5469C9.45312 16.3624 14.1845 21.0938 20 21.0938C25.8155 21.0938 30.5469 16.3624 30.5469 10.5469C30.5469 4.73133 25.8155 0 20 0Z" fill="#64798A"/>
<path d="M33.1223 27.984C30.2348 25.0521 26.407 23.4375 22.3438 23.4375H17.6562C13.5931 23.4375 9.76516 25.0521 6.87766 27.984C4.0043 30.9015 2.42188 34.7526 2.42188 38.8281C2.42188 39.4753 2.94656 40 3.59375 40H36.4062C37.0534 40 37.5781 39.4753 37.5781 38.8281C37.5781 34.7526 35.9957 30.9015 33.1223 27.984Z" fill="#64798A"/>
</svg>
